<?xml version="1.0" standalone="no"?><svg xmlns="http://www.w3.org/2000/svg" viewBox="0 0 1440 320"><path fill="#C06C84" fill-opacity="1" d="M0,160L24,149.3C48,139,96,117,144,112C192,107,240,117,288,112C336,107,384,85,432,80C480,75,528,85,576,85.3C624,85,672,75,720,101.3C768,128,816,192,864,192C912,192,960,128,1008,122.7C1056,117,1104,171,1152,202.7C1200,235,1248,245,1296,234.7C1344,224,1392,192,1416,176L1440,160L1440,320L1416,320C1392,320,1344,320,1296,320C1248,320,1200,320,1152,320C1104,320,1056,320,1008,320C960,320,912,320,864,320C816,320,768,320,720,320C672,320,624,320,576,320C528,320,480,320,432,320C384,320,336,320,288,320C240,320,192,320,144,320C96,320,48,320,24,320L0,320Z"></path></svg>